<?xml version="1.0" standalone="no"?>
<!DOCTYPE svg PUBLIC "-//W3C//DTD SVG 20010904//EN"
 "http://www.w3.org/TR/2001/REC-SVG-20010904/DTD/svg10.dtd">
<svg version="1.0" xmlns="http://www.w3.org/2000/svg"
 width="500.000000pt" height="500.000000pt" viewBox="0 0 500.000000 500.000000"
 preserveAspectRatio="xMidYMid meet">

<g transform="translate(0.000000,500.000000) scale(0.100000,-0.100000)"
fill="#000000" stroke="none">
<path d="M1790 4184 c-388 -173 -710 -320 -717 -326 -10 -8 -13 -186 -13 -849
l0 -839 23 -14 c48 -30 1402 -630 1419 -629 30 3 1412 624 1426 641 9 12 12
196 12 842 0 646 -3 830 -12 842 -10 12 -1414 649 -1430 648 -1 0 -320 -142
-708 -316z m1352 -76 c346 -154 625 -284 621 -288 -4 -4 -106 -51 -225 -104
l-217 -96 -413 206 -412 206 -409 -207 -408 -207 -217 97 c-119 54 -221 101
-225 105 -5 4 54 35 130 69 76 34 356 160 623 281 267 120 494 218 504 219 10
1 302 -126 648 -281z m-217 -331 l420 -212 0 -530 0 -530 -422 -213 -423 -212
-422 212 -423 213 0 530 0 530 420 212 c231 117 422 212 425 212 3 0 194 -95
425 -212z m-1534 -134 l219 -98 0 -525 c0 -289 4 -530 8 -536 4 -7 193 -104
420 -218 l412 -206 0 -205 c0 -113 -3 -205 -7 -204 -5 0 -296 130 -648 288
l-640 287 -3 757 c-1 562 1 757 9 757 7 0 110 -44 230 -97z m2449 -661 l0
-757 -636 -285 c-350 -157 -640 -286 -645 -288 -5 -2 -9 85 -9 205 l0 208 415
207 415 208 2 531 3 532 215 98 c118 53 221 98 228 98 9 1 12 -157 12 -757z"/>
<path d="M2030 1457 c-28 -14 -50 -51 -50 -85 0 -37 52 -82 95 -82 48 0 95 44
95 90 0 66 -77 109 -140 77z"/>
<path d="M1425 1420 c-80 -14 -174 -68 -215 -123 -69 -91 -98 -227 -80 -375
20 -155 73 -247 174 -300 44 -23 63 -27 141 -27 107 0 156 20 195 80 l25 38 3
-57 3 -56 79 0 80 0 0 225 0 225 -175 0 -175 0 0 -65 0 -65 95 0 95 0 0 -37
c0 -21 -9 -56 -19 -79 -24 -52 -68 -74 -150 -74 -138 0 -197 67 -208 239 -12
191 48 298 177 316 92 13 167 -17 211 -84 l15 -24 62 38 c34 21 62 40 62 42 0
16 -35 65 -64 90 -68 61 -216 93 -331 73z"/>
<path d="M2350 1005 l0 -405 70 0 70 0 0 270 c0 149 4 270 9 270 8 0 191 -509
191 -531 0 -6 30 -9 71 -7 l71 3 92 262 c50 144 94 265 99 269 4 4 7 -115 7
-264 l0 -272 80 0 80 0 0 405 0 406 -107 -3 -107 -3 -100 -292 c-55 -161 -103
-293 -107 -293 -6 0 -24 47 -159 438 l-53 152 -103 0 -104 0 0 -405z"/>
<path d="M3600 1224 c-107 -20 -184 -76 -223 -162 -18 -39 -22 -66 -22 -152 0
-128 23 -189 93 -250 106 -94 298 -94 404 0 70 61 93 122 93 250 0 124 -18
174 -85 238 -57 56 -178 91 -260 76z m130 -153 c42 -29 60 -78 60 -161 -1
-129 -45 -190 -140 -190 -94 0 -139 61 -140 188 0 110 31 166 102 182 43 9 87
2 118 -19z"/>
<path d="M2000 905 l0 -305 75 0 75 0 0 305 0 305 -75 0 -75 0 0 -305z"/>
</g>
</svg>
