<svg version="1.1" id="Layer_1" xmlns="http://www.w3.org/2000/svg" xmlns:xlink="http://www.w3.org/1999/xlink" x="0px" y="0px"
	 width="100%" viewBox="0 0 844 844" enable-background="new 0 0 844 844" xml:space="preserve">
<path fill="#FEFDF5" opacity="1.000000" stroke="none" 
	d="
M845.000000,190.000000 
	C845.000000,408.666595 845.000000,626.833191 845.000000,844.999817 
	C563.666870,844.999878 282.333740,844.999878 1.000469,844.999939 
	C1.000313,563.666992 1.000313,282.333984 1.000156,1.000733 
	C282.332886,1.000489 563.665771,1.000489 844.999329,1.000244 
	C845.000000,63.833332 845.000000,126.666664 845.000000,190.000000 
M15.672811,812.648926 
	C23.879063,828.639832 36.833145,837.025208 54.939728,837.027466 
	C171.438095,837.042053 287.936462,837.039551 404.434814,837.039185 
	C534.432983,837.038757 664.431274,837.078430 794.429199,836.889832 
	C800.268677,836.881409 806.583252,835.849854 811.855164,833.473022 
	C829.018738,825.734680 837.281738,812.051208 837.275879,793.025757 
	C837.199768,546.862549 837.229553,300.699310 837.209106,54.536102 
	C837.207031,29.347912 819.273621,11.653685 793.893860,11.653224 
	C548.063965,11.648758 302.233917,11.787373 56.404495,11.446568 
	C30.108906,11.410113 11.605190,32.114910 11.632350,55.978336 
	C11.912146,301.807892 11.772504,547.637878 11.942111,793.467651 
	C11.946366,799.634644 14.152802,805.799988 15.672811,812.648926 
z"/>
<path fill="#E5B018" opacity="1.000000" stroke="none" 
	d="
M15.502493,812.307495 
	C14.152802,805.799988 11.946366,799.634644 11.942111,793.467651 
	C11.772504,547.637878 11.912146,301.807892 11.632350,55.978336 
	C11.605190,32.114910 30.108906,11.410113 56.404495,11.446568 
	C302.233917,11.787373 548.063965,11.648758 793.893860,11.653224 
	C819.273621,11.653685 837.207031,29.347912 837.209106,54.536102 
	C837.229553,300.699310 837.199768,546.862549 837.275879,793.025757 
	C837.281738,812.051208 829.018738,825.734680 811.855164,833.473022 
	C806.583252,835.849854 800.268677,836.881409 794.429199,836.889832 
	C664.431274,837.078430 534.432983,837.038757 404.434814,837.039185 
	C287.936462,837.039551 171.438095,837.042053 54.939728,837.027466 
	C36.833145,837.025208 23.879063,828.639832 15.502493,812.307495 
M486.500000,27.016178 
	C356.340698,27.016174 226.181381,26.986666 96.022118,27.058546 
	C81.895691,27.066347 67.764328,28.058838 53.644779,27.872608 
	C38.882198,27.677896 27.875467,40.432400 27.884554,54.883862 
	C28.039228,300.871155 28.080423,546.858704 27.808483,792.845764 
	C27.790350,809.247437 41.428436,821.219849 56.251953,821.202881 
	C301.905701,820.921631 547.559937,820.931641 793.213745,821.175171 
	C808.260376,821.190063 821.213623,809.808899 821.195129,793.140015 
	C820.922852,547.986206 821.007446,302.832001 821.007324,57.677921 
	C821.007324,56.177998 821.098938,54.671448 820.991638,53.179222 
	C820.221558,42.470436 816.073364,33.658756 805.329224,30.128880 
	C799.351990,28.165136 792.787109,27.153309 786.484436,27.141987 
	C686.823242,26.962975 587.161560,27.016207 486.500000,27.016178 
z"/>
<path fill="#FECA1C" opacity="1.000000" stroke="none" 
	d="
M487.000000,27.016201 
	C587.161560,27.016207 686.823242,26.962975 786.484436,27.141987 
	C792.787109,27.153309 799.351990,28.165136 805.329224,30.128880 
	C816.073364,33.658756 820.221558,42.470436 820.991638,53.179222 
	C821.098938,54.671448 821.007324,56.177998 821.007324,57.677921 
	C821.007446,302.832001 820.922852,547.986206 821.195129,793.140015 
	C821.213623,809.808899 808.260376,821.190063 793.213745,821.175171 
	C547.559937,820.931641 301.905701,820.921631 56.251953,821.202881 
	C41.428436,821.219849 27.790350,809.247437 27.808483,792.845764 
	C28.080423,546.858704 28.039228,300.871155 27.884554,54.883862 
	C27.875467,40.432400 38.882198,27.677896 53.644779,27.872608 
	C67.764328,28.058838 81.895691,27.066347 96.022118,27.058546 
	C226.181381,26.986666 356.340698,27.016174 487.000000,27.016201 
M354.282867,424.078003 
	C353.886200,424.472504 353.489502,424.867035 353.079346,425.083466 
	C353.079346,425.083466 353.256805,425.103668 352.555206,425.303131 
	C351.045685,428.434875 348.243774,431.557648 348.221954,434.699707 
	C347.929626,476.751984 348.009644,518.807007 348.096222,560.861145 
	C348.099091,562.246277 349.149139,563.629333 350.000214,565.073547 
	C350.000214,565.073547 349.990204,565.368652 350.300446,566.043152 
	C353.011078,566.350708 355.719574,566.679260 358.432922,566.960693 
	C361.969635,567.327637 365.510254,567.657104 369.026062,568.900879 
	C369.002563,576.009155 369.002563,576.009338 375.864227,576.009216 
	C423.010223,576.008179 470.156494,575.940735 517.301880,576.109924 
	C521.946411,576.126587 523.157349,574.805542 523.117126,570.243103 
	C522.901001,545.755737 523.222717,521.262329 522.855042,496.778595 
	C522.772766,491.296814 524.384399,487.677094 528.733398,484.790100 
	C530.655396,483.514191 532.387146,481.931946 534.115540,480.388245 
	C537.570251,477.302704 541.282471,475.809357 546.198242,475.859924 
	C572.517212,476.130707 598.840637,476.016571 625.162048,475.924347 
	C627.000122,475.917938 629.373840,475.581482 630.584534,474.434113 
	C638.854614,466.596130 646.903442,458.523468 654.978882,450.481628 
	C666.505859,439.002594 678.059814,427.548798 689.417725,415.904236 
	C690.846497,414.439484 691.876587,411.885345 691.880798,409.833435 
	C692.009155,347.694244 691.999146,285.554718 691.917786,223.415405 
	C691.915344,221.577957 691.428894,219.288818 690.285461,217.983643 
	C685.373535,212.377151 680.143066,207.048828 675.006897,201.639847 
	C661.626465,187.548492 648.223633,173.478348 634.857178,159.373764 
	C632.421143,156.803177 630.109436,154.120453 625.173889,154.998764 
	C623.797729,154.992584 622.421631,154.986404 620.517944,154.783890 
	C620.354187,154.460663 620.190430,154.137451 619.903442,153.229233 
	C619.493042,152.845016 619.082581,152.460800 618.033081,151.945511 
	C614.982117,149.349335 611.931213,146.753174 608.518188,143.573456 
	C607.231567,143.390488 605.945007,143.047546 604.658325,143.047287 
	C482.995331,143.023117 361.332336,143.021011 239.669357,143.071472 
	C238.152145,143.072098 236.635208,143.767212 234.453568,144.544434 
	C231.853317,146.339127 229.253067,148.133820 226.157776,150.090729 
	C225.749771,150.603088 225.341766,151.115448 224.744095,152.296494 
	C222.726807,154.179382 220.709503,156.062271 218.140701,158.098984 
	C217.785477,158.508194 217.430267,158.917419 216.994232,159.979492 
	C212.226791,164.634689 207.459351,169.289902 202.144104,174.096466 
	C201.787079,174.498947 201.430069,174.901443 201.001480,175.960571 
	C197.803650,179.003738 194.605804,182.046906 190.824188,185.253983 
	C190.534271,185.754425 190.244370,186.254868 189.779465,187.410721 
	C188.762314,188.257614 187.745163,189.104492 186.207031,190.093475 
	C185.783691,190.618530 185.360367,191.143600 184.767029,192.297928 
	C184.406128,192.513626 184.045242,192.729324 183.167496,193.101212 
	C182.758804,193.640610 182.350113,194.180023 181.787827,195.385483 
	C180.766129,196.237488 179.744431,197.089493 178.202560,198.090546 
	C177.782761,198.620499 177.362961,199.150467 176.759979,200.310028 
	C176.393219,200.520279 176.026459,200.730530 175.150848,201.103226 
	C174.747391,201.640213 174.343933,202.177200 173.776428,203.377899 
	C172.754807,204.232849 171.733170,205.087784 170.197449,206.091782 
	C169.781372,206.613327 169.365295,207.134857 168.692368,208.472458 
	C168.505173,208.687592 168.317978,208.902710 167.560074,209.488113 
	C167.381317,210.774796 167.047028,212.061371 167.046280,213.348160 
	C167.018845,260.951447 167.021423,308.554779 167.026367,356.158081 
	C167.026474,357.319580 167.003067,358.499634 167.219437,359.627106 
	C167.263138,359.854736 168.343628,359.883392 169.794708,359.877716 
	C170.918259,360.025085 172.041809,360.172455 173.439056,360.625458 
	C173.906708,360.518005 174.374344,360.410553 175.745514,359.998871 
	C179.535278,360.097931 183.325027,360.196991 187.451324,360.993256 
	C187.631058,361.796143 187.991211,362.605560 187.962463,363.400909 
	C187.690414,370.927979 188.063065,369.998169 194.842667,370.001038 
	C241.811493,370.020874 288.780487,369.962830 335.748901,370.096985 
	C339.886566,370.108795 341.112274,368.951843 341.087280,364.782562 
	C340.917725,336.469025 341.327026,308.147858 340.795410,279.843292 
	C340.639282,271.528931 342.465546,265.355133 349.110352,260.151337 
	C353.055389,257.061859 356.582275,254.858322 361.907837,254.877899 
	C412.873322,255.065201 463.839783,254.974106 514.805847,255.029190 
	C517.929016,255.032562 521.051453,255.596603 524.077515,255.954147 
	C524.077515,255.954147 524.041992,255.848999 524.336304,256.393372 
	C524.705078,256.562836 525.073853,256.732300 526.212463,257.117859 
	C526.509338,258.363647 527.063477,259.609039 527.065552,260.855316 
	C527.118835,293.163727 527.038757,325.472656 527.206299,357.780304 
	C527.230103,362.368347 525.513367,363.130646 521.339661,363.108795 
	C487.699707,362.932495 454.058289,362.964020 420.417999,363.098694 
	C418.151917,363.107758 415.262512,363.825317 413.730988,365.312866 
	C404.427399,374.349152 395.494598,383.765442 386.320099,392.936890 
	C376.567108,402.686676 366.683167,412.305450 356.276184,422.105103 
	C355.839874,422.692291 355.403595,423.279480 354.972687,423.971680 
	C354.972687,423.971680 354.867706,423.965607 354.282867,424.078003 
M59.295109,775.605774 
	C64.331314,783.789734 71.410339,789.870239 80.418083,792.721436 
	C88.784088,795.369507 97.580772,795.923401 106.295715,792.998169 
	C116.071846,789.716675 123.530304,783.872009 129.207550,775.176941 
	C134.530685,767.024292 135.312592,758.205566 134.983826,748.178894 
	C133.063095,742.731689 132.109955,736.656372 129.052567,731.947083 
	C116.458961,712.549438 91.997551,707.172424 72.679726,718.605835 
	C53.558128,729.922974 46.924496,756.553284 59.295109,775.605774 
M798.997498,748.167114 
	C798.910156,741.049194 795.859253,734.791748 791.750549,729.517212 
	C776.446594,709.870667 748.020996,706.311707 729.985046,724.149353 
	C720.691284,733.341003 716.060913,744.541992 718.027039,757.747437 
	C718.843933,763.234436 720.666748,768.571655 722.306885,774.587708 
	C727.690430,781.579407 733.366150,788.148010 741.959900,791.501953 
	C752.398865,795.575989 763.281616,796.920105 773.424011,792.395020 
	C787.014099,786.331848 796.772156,776.121887 798.923279,760.510803 
	C799.442505,756.742188 798.995422,752.840515 798.997498,748.167114 
M721.003601,116.762100 
	C723.281250,119.923393 724.999939,123.779144 727.926270,126.134483 
	C748.525330,142.714096 775.791626,138.213257 790.539551,116.089539 
	C796.066284,107.798775 796.521301,98.487206 795.896912,88.232315 
	C795.231873,86.180771 794.606628,84.115318 793.895203,82.079971 
	C789.562317,69.682739 781.716492,60.911823 769.004028,56.393661 
	C740.575928,46.290035 711.854553,67.985054 714.206604,98.487709 
	C714.682861,104.663788 715.573669,111.422043 721.003601,116.762100 
M60.068470,117.691666 
	C61.515606,119.471664 62.989410,121.230743 64.405525,123.035088 
	C73.024712,134.017303 90.379295,138.039749 102.154968,135.375626 
	C116.227707,132.191788 126.472855,124.098015 132.117950,110.651176 
	C135.043839,103.681587 136.254318,96.471352 134.028244,88.163727 
	C131.990967,65.527588 109.436119,50.162228 86.322861,54.539749 
	C67.791595,58.049454 55.214474,72.140198 53.169174,90.815369 
	C52.143360,100.181854 54.011608,109.240295 60.068470,117.691666 
M503.962952,651.079224 
	C503.938934,650.413452 503.896179,649.747742 503.893738,649.081909 
	C503.864624,641.141602 503.866211,641.155029 496.149109,641.155762 
	C449.663330,641.160095 403.177582,641.157532 356.691803,641.158081 
	C349.402222,641.158142 349.404144,641.160278 349.398987,648.703491 
	C349.391388,659.866638 349.365692,671.029724 349.374542,682.192871 
	C349.390289,702.019714 349.521881,721.847290 349.381531,741.672974 
	C349.349274,746.228027 350.851257,747.982544 355.489807,747.679321 
	C359.953949,747.387573 364.463013,747.783142 368.990631,748.811279 
	C369.042389,757.991821 369.042389,757.994324 378.281494,757.994507 
	C423.570374,757.995483 468.859253,757.995117 514.148132,757.995117 
	C523.035461,757.995117 523.034668,757.995056 523.014526,749.548706 
	C523.010132,747.717163 523.013611,745.885681 523.013611,744.054138 
	C523.013916,715.249084 522.899475,686.443054 523.128540,657.639832 
	C523.166321,652.881897 521.663025,651.556030 517.190735,651.909363 
	C512.889587,652.249084 508.538910,651.961609 503.962952,651.079224 
z"/>
<path fill="#FFFFFD" opacity="1.000000" stroke="none" 
	d="
M202.691925,173.945114 
	C207.459351,169.289902 212.226791,164.634689 217.320099,159.592224 
	C217.994720,158.785034 218.343460,158.365097 218.692215,157.945160 
	C220.709503,156.062271 222.726807,154.179382 225.110321,151.950836 
	C225.868652,151.046280 226.260727,150.487396 226.652817,149.928513 
	C229.253067,148.133820 231.853317,146.339127 235.205139,144.538239 
	C236.453934,144.570480 236.951172,144.642532 237.448410,144.642578 
	C359.789795,144.654419 482.131165,144.663040 604.472534,144.647018 
	C605.941772,144.646820 607.411011,144.327408 608.880249,144.157013 
	C611.931213,146.753174 614.982117,149.349335 618.409424,152.304749 
	C619.199341,153.047409 619.613037,153.430817 620.026672,153.814240 
	C620.190430,154.137451 620.354187,154.460663 620.876892,155.204285 
	C624.782837,159.201721 628.329773,162.778778 632.002136,166.652222 
	C634.136719,168.940338 636.145874,170.932053 638.236328,173.232101 
	C639.548279,174.685471 640.778992,175.830521 642.005005,176.989227 
	C642.000366,177.002884 642.026428,176.990112 642.105774,177.276337 
	C642.790344,178.038193 643.395569,178.513809 644.000244,178.995026 
	C643.999756,179.000610 644.010193,178.999100 644.068054,179.330292 
	C646.380798,181.875351 648.635681,184.089218 650.918396,186.507263 
	C651.083679,186.986404 651.306030,187.127090 651.734375,187.458862 
	C654.482300,190.291214 657.109131,192.798157 659.783081,195.265991 
	C659.830139,195.226898 659.716980,195.180267 659.768677,195.467651 
	C660.145752,195.935287 660.471130,196.115570 660.800415,196.217941 
	C660.804443,196.140045 660.659546,196.197830 660.683228,196.498795 
	C661.147034,197.175400 661.587219,197.551041 662.017700,197.959534 
	C662.008057,197.992371 662.073975,197.973755 662.146545,198.259491 
	C662.811096,199.032120 663.403015,199.518982 664.064453,200.293259 
	C664.730347,201.064606 665.326782,201.548553 666.001099,202.365585 
	C668.266602,206.204697 672.149780,208.237579 672.128845,213.579529 
	C671.886169,275.361847 672.001648,337.145508 671.863831,398.928467 
	C671.858887,401.127197 670.680359,403.705750 669.245178,405.443512 
	C665.666687,409.776306 661.624146,413.725861 657.823669,417.855530 
	C657.879395,417.881805 657.828735,417.769501 657.512878,417.860229 
	C656.069763,419.255585 654.942444,420.560242 653.873047,421.899109 
	C653.930969,421.933319 653.862732,421.817444 653.538208,421.903687 
	C649.382812,425.917633 645.551941,429.845337 641.796082,433.819061 
	C641.871094,433.865082 641.771179,433.720154 641.456909,433.809662 
	C640.009216,435.198029 638.875854,436.496918 637.811523,437.835938 
	C637.880554,437.876099 637.793884,437.741943 637.468994,437.825806 
	C633.328491,441.853882 629.512817,445.798126 625.785767,449.809143 
	C625.874390,449.875916 625.742737,449.697327 625.428955,449.786011 
	C623.979004,451.163940 622.842834,452.453186 621.816772,453.820496 
	C621.926941,453.898499 621.739502,453.704163 621.415039,453.782745 
	C618.923950,455.929321 616.485168,457.783020 614.651062,460.112793 
	C611.465149,464.159637 607.598389,465.272858 602.507751,465.216583 
	C578.685181,464.953186 554.837830,465.673370 531.041687,464.836731 
	C520.087769,464.451630 513.562805,470.207306 506.886963,476.902771 
	C506.949127,476.936340 506.864746,476.823059 506.482422,476.907990 
	C505.344452,479.197357 503.944946,481.397919 503.931641,483.606842 
	C503.778442,509.102325 503.782379,534.599304 503.895111,560.095215 
	C503.911346,563.763123 503.136353,565.532104 498.961884,565.520752 
	C449.304871,565.385864 399.647491,565.396301 349.990204,565.368652 
	C349.990204,565.368652 350.000214,565.073547 349.919128,564.579590 
	C349.793030,524.054138 349.731903,484.022675 349.719360,443.991211 
	C349.717316,437.493927 348.575256,430.741547 353.256805,425.103668 
	C353.256805,425.103668 353.079346,425.083466 353.393372,425.168640 
	C354.094177,424.824371 354.480927,424.394989 354.867706,423.965607 
	C354.867706,423.965607 354.972687,423.971680 355.252563,423.864868 
	C355.973755,423.165833 356.415070,422.573639 356.856384,421.981445 
	C366.683167,412.305450 376.567108,402.686676 386.320099,392.936890 
	C395.494598,383.765442 404.427399,374.349152 413.730988,365.312866 
	C415.262512,363.825317 418.151917,363.107758 420.417999,363.098694 
	C454.058289,362.964020 487.699707,362.932495 521.339661,363.108795 
	C525.513367,363.130646 527.230103,362.368347 527.206299,357.780304 
	C527.038757,325.472656 527.118835,293.163727 527.065552,260.855316 
	C527.063477,259.609039 526.509338,258.363647 525.671997,256.739380 
	C524.768311,256.190277 524.405151,256.019623 524.041992,255.848999 
	C524.041992,255.848999 524.077515,255.954147 524.060303,255.594513 
	C520.875854,252.301193 517.852112,249.186096 514.476990,246.515076 
	C512.931946,245.292435 510.696838,244.296661 508.772369,244.292603 
	C452.150177,244.173172 395.527649,244.173920 338.905365,244.270081 
	C337.104340,244.273132 335.012848,245.101013 333.566193,246.209290 
	C330.539032,248.528320 327.942017,251.399780 325.000153,253.841782 
	C322.101807,256.247681 320.985809,259.015472 321.006226,262.896637 
	C321.165619,293.205414 320.977020,323.516266 321.193176,353.824371 
	C321.226868,358.554657 319.757965,359.620819 315.283844,359.603851 
	C274.482971,359.449005 233.681229,359.502747 192.879807,359.546875 
	C190.957870,359.548950 189.036453,360.035278 187.114792,360.296082 
	C183.325027,360.196991 179.535278,360.097931 175.196686,359.934692 
	C174.153702,360.020264 173.659531,360.170044 173.165359,360.319794 
	C172.041809,360.172455 170.918259,360.025085 169.317902,359.473846 
	C168.731293,356.752655 168.526642,354.435333 168.525696,352.117981 
	C168.506958,306.261383 168.516144,260.404785 168.495789,214.548203 
	C168.494980,212.738037 168.257812,210.927963 168.130768,209.117844 
	C168.317978,208.902710 168.505173,208.687592 169.092834,208.049149 
	C169.899384,207.064804 170.305466,206.503769 170.711548,205.942734 
	C171.733170,205.087784 172.754807,204.232849 174.129883,203.010651 
	C174.875458,202.075851 175.267578,201.508316 175.659683,200.940765 
	C176.026459,200.730530 176.393219,200.520279 177.126984,199.976135 
	C177.903564,199.075333 178.313156,198.508423 178.722748,197.941498 
	C179.744431,197.089493 180.766129,196.237488 182.139801,195.023315 
	C182.889297,194.089096 183.286835,193.517059 183.684357,192.945023 
	C184.045242,192.729324 184.406128,192.513626 185.124695,191.960327 
	C185.897583,191.065628 186.312790,190.508499 186.728012,189.951385 
	C187.745163,189.104492 188.762314,188.257614 190.153107,187.006561 
	C190.820496,186.098282 191.114227,185.594177 191.407959,185.090088 
	C194.605804,182.046906 197.803650,179.003738 201.323380,175.579193 
	C201.994156,174.780258 202.343048,174.362686 202.691925,173.945114 
z"/>
<path fill="#FFFEFC" opacity="1.000000" stroke="none" 
	d="
M368.952362,747.876709 
	C364.463013,747.783142 359.953949,747.387573 355.489807,747.679321 
	C350.851257,747.982544 349.349274,746.228027 349.381531,741.672974 
	C349.521881,721.847290 349.390289,702.019714 349.374542,682.192871 
	C349.365692,671.029724 349.391388,659.866638 349.398987,648.703491 
	C349.404144,641.160278 349.402222,641.158142 356.691803,641.158081 
	C403.177582,641.157532 449.663330,641.160095 496.149109,641.155762 
	C503.866211,641.155029 503.864624,641.141602 503.893738,649.081909 
	C503.896179,649.747742 503.938934,650.413452 503.957550,651.975342 
	C503.914825,682.359253 503.767151,711.847717 503.949554,741.334106 
	C503.979736,746.218750 502.512695,747.401123 497.759705,747.379089 
	C456.609375,747.188171 415.457825,747.253296 374.306671,747.281738 
	C372.521759,747.282959 370.737122,747.669617 368.952362,747.876709 
z"/>
<path fill="#E5AF17" opacity="1.000000" stroke="none" 
	d="
M638.155090,172.923782 
	C636.145874,170.932053 634.136719,168.940338 632.014526,166.269760 
	C630.907837,163.928314 629.873169,162.288574 628.931580,160.597000 
	C627.909241,158.760315 626.973511,156.875443 626.000000,155.011612 
	C630.109436,154.120453 632.421143,156.803177 634.857178,159.373764 
	C648.223633,173.478348 661.626465,187.548492 675.006897,201.639847 
	C680.143066,207.048828 685.373535,212.377151 690.285461,217.983643 
	C691.428894,219.288818 691.915344,221.577957 691.917786,223.415405 
	C691.999146,285.554718 692.009155,347.694244 691.880798,409.833435 
	C691.876587,411.885345 690.846497,414.439484 689.417725,415.904236 
	C678.059814,427.548798 666.505859,439.002594 654.978882,450.481628 
	C646.903442,458.523468 638.854614,466.596130 630.584534,474.434113 
	C629.373840,475.581482 627.000122,475.917938 625.162048,475.924347 
	C598.840637,476.016571 572.517212,476.130707 546.198242,475.859924 
	C541.282471,475.809357 537.570251,477.302704 534.115540,480.388245 
	C532.387146,481.931946 530.655396,483.514191 528.733398,484.790100 
	C524.384399,487.677094 522.772766,491.296814 522.855042,496.778595 
	C523.222717,521.262329 522.901001,545.755737 523.117126,570.243103 
	C523.157349,574.805542 521.946411,576.126587 517.301880,576.109924 
	C470.156494,575.940735 423.010223,576.008179 375.864227,576.009216 
	C369.002563,576.009338 369.002563,576.009155 369.500671,568.450806 
	C411.760712,568.000488 453.546143,568.000610 495.331543,567.999756 
	C505.031067,567.999573 505.926575,567.052979 506.013885,557.598816 
	C506.262543,530.673218 506.576508,503.748260 506.864746,476.823059 
	C506.864746,476.823059 506.949127,476.936340 507.253815,476.915588 
	C510.686768,474.785156 513.789307,472.635925 516.952881,470.580597 
	C518.867798,469.336456 522.036133,466.803314 522.657166,467.305054 
	C526.890076,470.725311 530.551392,466.765472 534.400208,467.019226 
	C538.354553,467.279938 542.298462,467.922302 546.250549,467.954376 
	C560.554260,468.070343 574.860474,468.097717 589.163635,467.953186 
	C595.111694,467.893127 601.066101,467.449402 606.996094,466.933197 
	C611.940552,466.502808 620.320374,458.786285 621.739502,453.704163 
	C621.739502,453.704163 621.926941,453.898499 622.191650,453.878113 
	C623.551819,452.470917 624.647278,451.084106 625.742737,449.697327 
	C625.742737,449.697327 625.874390,449.875916 626.154541,449.868835 
	C630.221130,445.821777 634.007507,441.781860 637.793884,437.741943 
	C637.793884,437.741943 637.880554,437.876099 638.184204,437.875061 
	C639.582336,436.489410 640.676758,435.104767 641.771118,433.720154 
	C641.771179,433.720154 641.871094,433.865082 642.179321,433.864136 
	C648.164246,431.628021 651.269104,426.964081 653.862732,421.817444 
	C653.862732,421.817444 653.930969,421.933319 654.239258,421.914307 
	C655.641235,420.520050 656.734985,419.144775 657.828735,417.769501 
	C657.828735,417.769501 657.879395,417.881805 658.197388,417.882812 
	C662.593567,414.200562 666.999817,410.807068 670.614197,406.714203 
	C672.471619,404.610870 673.854065,401.263000 673.862244,398.472870 
	C674.042419,336.819824 674.001099,275.166138 673.998352,213.512589 
	C673.998047,207.319107 672.085022,204.615250 665.923218,202.032501 
	C665.326782,201.548553 664.730347,201.064606 664.028503,199.977219 
	C663.306702,198.907104 662.690369,198.440430 662.073975,197.973755 
	C662.073975,197.973755 662.008057,197.992371 661.976929,197.652679 
	C661.517029,196.941254 661.088318,196.569534 660.659546,196.197830 
	C660.659546,196.197830 660.804443,196.140045 660.751770,195.927460 
	C660.371704,195.536667 660.044373,195.358475 659.716980,195.180267 
	C659.716980,195.180267 659.830139,195.226898 659.843628,194.891190 
	C658.009583,191.081360 656.462463,187.273544 651.613281,187.133484 
	C651.306030,187.127090 651.083679,186.986404 650.927490,186.138885 
	C648.609192,183.377258 646.309692,181.188187 644.010193,178.999115 
	C644.010193,178.999100 643.999756,179.000610 643.959839,178.677414 
	C643.288818,177.899521 642.657593,177.444809 642.026428,176.990112 
	C642.026428,176.990112 642.000366,177.002884 641.999573,176.635559 
	C641.447083,174.314972 641.873657,171.237427 638.155090,172.923782 
z"/>
<path fill="#E5B01B" opacity="1.000000" stroke="none" 
	d="
M187.283051,360.644653 
	C189.036453,360.035278 190.957870,359.548950 192.879807,359.546875 
	C233.681229,359.502747 274.482971,359.449005 315.283844,359.603851 
	C319.757965,359.620819 321.226868,358.554657 321.193176,353.824371 
	C320.977020,323.516266 321.165619,293.205414 321.006226,262.896637 
	C320.985809,259.015472 322.101807,256.247681 325.000153,253.841782 
	C327.942017,251.399780 330.539032,248.528320 333.566193,246.209290 
	C335.012848,245.101013 337.104340,244.273132 338.905365,244.270081 
	C395.527649,244.173920 452.150177,244.173172 508.772369,244.292603 
	C510.696838,244.296661 512.931946,245.292435 514.476990,246.515076 
	C517.852112,249.186096 520.875854,252.301193 524.108704,255.567322 
	C521.051453,255.596603 517.929016,255.032562 514.805847,255.029190 
	C463.839783,254.974106 412.873322,255.065201 361.907837,254.877899 
	C356.582275,254.858322 353.055389,257.061859 349.110352,260.151337 
	C342.465546,265.355133 340.639282,271.528931 340.795410,279.843292 
	C341.327026,308.147858 340.917725,336.469025 341.087280,364.782562 
	C341.112274,368.951843 339.886566,370.108795 335.748901,370.096985 
	C288.780487,369.962830 241.811493,370.020874 194.842667,370.001038 
	C188.063065,369.998169 187.690414,370.927979 187.962463,363.400909 
	C187.991211,362.605560 187.631058,361.796143 187.283051,360.644653 
z"/>
<path fill="#F5B924" opacity="1.000000" stroke="none" 
	d="
M134.051361,89.001022 
	C136.254318,96.471352 135.043839,103.681587 132.117950,110.651176 
	C126.472855,124.098015 116.227707,132.191788 102.154968,135.375626 
	C90.379295,138.039749 73.024712,134.017303 64.405525,123.035088 
	C62.989410,121.230743 61.515606,119.471664 60.033463,116.889832 
	C59.733475,105.063911 63.150581,95.594185 70.255722,86.903717 
	C80.852158,73.942986 102.416191,68.651314 116.555756,76.442375 
	C122.798805,79.882355 128.243973,84.770378 134.051361,89.001022 
z"/>
<path fill="#F5B924" opacity="1.000000" stroke="none" 
	d="
M795.975586,88.976898 
	C796.521301,98.487206 796.066284,107.798775 790.539551,116.089539 
	C775.791626,138.213257 748.525330,142.714096 727.926270,126.134483 
	C724.999939,123.779144 723.281250,119.923393 721.001831,115.940788 
	C721.480103,110.524872 720.966614,105.525200 722.641357,101.417664 
	C726.451660,92.072433 731.977600,84.130417 741.276733,78.600914 
	C756.393372,69.612228 777.098572,72.068001 789.104492,83.544121 
	C791.205872,85.552750 793.675842,87.175797 795.975586,88.976898 
z"/>
<path fill="#F5B924" opacity="1.000000" stroke="none" 
	d="
M798.992676,749.000000 
	C798.995422,752.840515 799.442505,756.742188 798.923279,760.510803 
	C796.772156,776.121887 787.014099,786.331848 773.424011,792.395020 
	C763.281616,796.920105 752.398865,795.575989 741.959900,791.501953 
	C733.366150,788.148010 727.690430,781.579407 722.577637,774.273315 
	C723.563232,772.727844 724.652893,771.568909 724.906799,770.249207 
	C725.308594,768.161011 724.786743,765.876709 725.284424,763.828125 
	C732.092590,735.806519 763.296814,723.113159 786.920044,738.474426 
	C791.351868,741.356201 794.988892,745.460083 798.992676,749.000000 
z"/>
<path fill="#F5B925" opacity="1.000000" stroke="none" 
	d="
M134.979782,748.980469 
	C135.312592,758.205566 134.530685,767.024292 129.207550,775.176941 
	C123.530304,783.872009 116.071846,789.716675 106.295715,792.998169 
	C97.580772,795.923401 88.784088,795.369507 80.418083,792.721436 
	C71.410339,789.870239 64.331314,783.789734 59.435543,775.017456 
	C59.715904,773.622803 59.944889,772.820618 59.982533,772.009460 
	C60.641796,757.802795 66.405655,746.634399 78.526192,738.595947 
	C94.658691,727.896667 118.571449,730.293213 131.049805,745.491211 
	C132.147720,746.828430 133.659973,747.825439 134.979782,748.980469 
z"/>
<path fill="#E5AF15" opacity="1.000000" stroke="none" 
	d="
M368.971497,748.343994 
	C370.737122,747.669617 372.521759,747.282959 374.306671,747.281738 
	C415.457825,747.253296 456.609375,747.188171 497.759705,747.379089 
	C502.512695,747.401123 503.979736,746.218750 503.949554,741.334106 
	C503.767151,711.847717 503.914825,682.359253 504.081085,652.410645 
	C508.538910,651.961609 512.889587,652.249084 517.190735,651.909363 
	C521.663025,651.556030 523.166321,652.881897 523.128540,657.639832 
	C522.899475,686.443054 523.013916,715.249084 523.013611,744.054138 
	C523.013611,745.885681 523.010132,747.717163 523.014526,749.548706 
	C523.034668,757.995056 523.035461,757.995117 514.148132,757.995117 
	C468.859253,757.995117 423.570374,757.995483 378.281494,757.994507 
	C369.042389,757.994324 369.042389,757.991821 368.971497,748.343994 
z"/>
<path fill="#E6AF13" opacity="1.000000" stroke="none" 
	d="
M134.981812,748.579712 
	C133.659973,747.825439 132.147720,746.828430 131.049805,745.491211 
	C118.571449,730.293213 94.658691,727.896667 78.526192,738.595947 
	C66.405655,746.634399 60.641796,757.802795 59.982533,772.009460 
	C59.944889,772.820618 59.715904,773.622803 59.288261,774.714600 
	C46.924496,756.553284 53.558128,729.922974 72.679726,718.605835 
	C91.997551,707.172424 116.458961,712.549438 129.052567,731.947083 
	C132.109955,736.656372 133.063095,742.731689 134.981812,748.579712 
z"/>
<path fill="#E6AF13" opacity="1.000000" stroke="none" 
	d="
M798.995117,748.583557 
	C794.988892,745.460083 791.351868,741.356201 786.920044,738.474426 
	C763.296814,723.113159 732.092590,735.806519 725.284424,763.828125 
	C724.786743,765.876709 725.308594,768.161011 724.906799,770.249207 
	C724.652893,771.568909 723.563232,772.727844 722.440308,773.967896 
	C720.666748,768.571655 718.843933,763.234436 718.027039,757.747437 
	C716.060913,744.541992 720.691284,733.341003 729.985046,724.149353 
	C748.020996,706.311707 776.446594,709.870667 791.750549,729.517212 
	C795.859253,734.791748 798.910156,741.049194 798.995117,748.583557 
z"/>
<path fill="#E6AF13" opacity="1.000000" stroke="none" 
	d="
M134.039795,88.582367 
	C128.243973,84.770378 122.798805,79.882355 116.555756,76.442375 
	C102.416191,68.651314 80.852158,73.942986 70.255722,86.903717 
	C63.150581,95.594185 59.733475,105.063911 59.998833,116.543243 
	C54.011608,109.240295 52.143360,100.181854 53.169174,90.815369 
	C55.214474,72.140198 67.791595,58.049454 86.322861,54.539749 
	C109.436119,50.162228 131.990967,65.527588 134.039795,88.582367 
z"/>
<path fill="#E6AF13" opacity="1.000000" stroke="none" 
	d="
M795.936279,88.604614 
	C793.675842,87.175797 791.205872,85.552750 789.104492,83.544121 
	C777.098572,72.068001 756.393372,69.612228 741.276733,78.600914 
	C731.977600,84.130417 726.451660,92.072433 722.641357,101.417664 
	C720.966614,105.525200 721.480103,110.524872 720.999634,115.575623 
	C715.573669,111.422043 714.682861,104.663788 714.206604,98.487709 
	C711.854553,67.985054 740.575928,46.290035 769.004028,56.393661 
	C781.716492,60.911823 789.562317,69.682739 793.895203,82.079971 
	C794.606628,84.115318 795.231873,86.180771 795.936279,88.604614 
z"/>
<path fill="#E5B01B" opacity="1.000000" stroke="none" 
	d="
M608.699219,143.865234 
	C607.411011,144.327408 605.941772,144.646820 604.472534,144.647018 
	C482.131165,144.663040 359.789795,144.654419 237.448410,144.642578 
	C236.951172,144.642532 236.453934,144.570480 235.537415,144.335114 
	C236.635208,143.767212 238.152145,143.072098 239.669357,143.071472 
	C361.332336,143.021011 482.995331,143.023117 604.658325,143.047287 
	C605.945007,143.047546 607.231567,143.390488 608.699219,143.865234 
z"/>
<path fill="#E5B01B" opacity="1.000000" stroke="none" 
	d="
M506.482422,476.907990 
	C506.576508,503.748260 506.262543,530.673218 506.013885,557.598816 
	C505.926575,567.052979 505.031067,567.999573 495.331543,567.999756 
	C453.546143,568.000610 411.760712,568.000488 369.512268,568.001770 
	C365.510254,567.657104 361.969635,567.327637 358.432922,566.960693 
	C355.719574,566.679260 353.011078,566.350708 350.145325,565.705933 
	C399.647491,565.396301 449.304871,565.385864 498.961884,565.520752 
	C503.136353,565.532104 503.911346,563.763123 503.895111,560.095215 
	C503.782379,534.599304 503.778442,509.102325 503.931641,483.606842 
	C503.944946,481.397919 505.344452,479.197357 506.482422,476.907990 
z"/>
<path fill="#E5B01B" opacity="1.000000" stroke="none" 
	d="
M167.845428,209.302979 
	C168.257812,210.927963 168.494980,212.738037 168.495789,214.548203 
	C168.516144,260.404785 168.506958,306.261383 168.525696,352.117981 
	C168.526642,354.435333 168.731293,356.752655 168.893600,359.536865 
	C168.343628,359.883392 167.263138,359.854736 167.219437,359.627106 
	C167.003067,358.499634 167.026474,357.319580 167.026367,356.158081 
	C167.021423,308.554779 167.018845,260.951447 167.046280,213.348160 
	C167.047028,212.061371 167.381317,210.774796 167.845428,209.302979 
z"/>
<path fill="#E5B01B" opacity="1.000000" stroke="none" 
	d="
M352.906006,425.203400 
	C348.575256,430.741547 349.717316,437.493927 349.719360,443.991211 
	C349.731903,484.022675 349.793030,524.054138 349.774536,564.549438 
	C349.149139,563.629333 348.099091,562.246277 348.096222,560.861145 
	C348.009644,518.807007 347.929626,476.751984 348.221954,434.699707 
	C348.243774,431.557648 351.045685,428.434875 352.906006,425.203400 
z"/>
<path fill="#E5B01B" opacity="1.000000" stroke="none" 
	d="
M625.586914,155.005188 
	C626.973511,156.875443 627.909241,158.760315 628.931580,160.597000 
	C629.873169,162.288574 630.907837,163.928314 631.889160,165.973358 
	C628.329773,162.778778 624.782837,159.201721 621.140625,155.302460 
	C622.421631,154.986404 623.797729,154.992584 625.586914,155.005188 
z"/>
<path fill="#E5B01B" opacity="1.000000" stroke="none" 
	d="
M173.302216,360.472626 
	C173.659531,360.170044 174.153702,360.020264 174.744934,360.086792 
	C174.374344,360.410553 173.906708,360.518005 173.302216,360.472626 
z"/>
<path fill="#E5B01B" opacity="1.000000" stroke="none" 
	d="
M356.566284,422.043274 
	C356.415070,422.573639 355.973755,423.165833 355.249878,423.812378 
	C355.403595,423.279480 355.839874,422.692291 356.566284,422.043274 
z"/>
<path fill="#E5B01B" opacity="1.000000" stroke="none" 
	d="
M226.405304,150.009613 
	C226.260727,150.487396 225.868652,151.046280 225.205154,151.616486 
	C225.341766,151.115448 225.749771,150.603088 226.405304,150.009613 
z"/>
<path fill="#E5B01B" opacity="1.000000" stroke="none" 
	d="
M170.454498,206.017258 
	C170.305466,206.503769 169.899384,207.064804 169.221252,207.641113 
	C169.365295,207.134857 169.781372,206.613327 170.454498,206.017258 
z"/>
<path fill="#E5B01B" opacity="1.000000" stroke="none" 
	d="
M175.405273,201.022003 
	C175.267578,201.508316 174.875458,202.075851 174.211914,202.678787 
	C174.343933,202.177200 174.747391,201.640213 175.405273,201.022003 
z"/>
<path fill="#E5B01B" opacity="1.000000" stroke="none" 
	d="
M178.462662,198.016022 
	C178.313156,198.508423 177.903564,199.075333 177.218567,199.661346 
	C177.362961,199.150467 177.782761,198.620499 178.462662,198.016022 
z"/>
<path fill="#E5B01B" opacity="1.000000" stroke="none" 
	d="
M183.425934,193.023132 
	C183.286835,193.517059 182.889297,194.089096 182.216583,194.690277 
	C182.350113,194.180023 182.758804,193.640610 183.425934,193.023132 
z"/>
<path fill="#E5B01B" opacity="1.000000" stroke="none" 
	d="
M186.467529,190.022430 
	C186.312790,190.508499 185.897583,191.065628 185.209686,191.645691 
	C185.360367,191.143600 185.783691,190.618530 186.467529,190.022430 
z"/>
<path fill="#E5B01B" opacity="1.000000" stroke="none" 
	d="
M354.575287,424.021790 
	C354.480927,424.394989 354.094177,424.824371 353.400146,425.257660 
	C353.489502,424.867035 353.886200,424.472504 354.575287,424.021790 
z"/>
<path fill="#E5B01B" opacity="1.000000" stroke="none" 
	d="
M191.116074,185.172028 
	C191.114227,185.594177 190.820496,186.098282 190.240601,186.678848 
	C190.244370,186.254868 190.534271,185.754425 191.116074,185.172028 
z"/>
<path fill="#E5B01B" opacity="1.000000" stroke="none" 
	d="
M202.418030,174.020782 
	C202.343048,174.362686 201.994156,174.780258 201.359161,175.250885 
	C201.430069,174.901443 201.787079,174.498947 202.418030,174.020782 
z"/>
<path fill="#E5B01B" opacity="1.000000" stroke="none" 
	d="
M218.416458,158.022064 
	C218.343460,158.365097 217.994720,158.785034 217.360519,159.265808 
	C217.430267,158.917419 217.785477,158.508194 218.416458,158.022064 
z"/>
<path fill="#E5B01B" opacity="1.000000" stroke="none" 
	d="
M619.965088,153.521729 
	C619.613037,153.430817 619.199341,153.047409 618.728943,152.370285 
	C619.082581,152.460800 619.493042,152.845016 619.965088,153.521729 
z"/>
<path fill="#E5B01B" opacity="1.000000" stroke="none" 
	d="
M524.189148,256.121185 
	C524.405151,256.019623 524.768311,256.190277 525.287048,256.631348 
	C525.073853,256.732300 524.705078,256.562836 524.189148,256.121185 
z"/>
<path fill="#E5B01B" opacity="1.000000" stroke="none" 
	d="
M666.001099,202.365570 
	C672.085022,204.615250 673.998047,207.319107 673.998352,213.512589 
	C674.001099,275.166138 674.042419,336.819824 673.862244,398.472870 
	C673.854065,401.263000 672.471619,404.610870 670.614197,406.714203 
	C666.999817,410.807068 662.593567,414.200562 658.141663,417.856506 
	C661.624146,413.725861 665.666687,409.776306 669.245178,405.443512 
	C670.680359,403.705750 671.858887,401.127197 671.863831,398.928467 
	C672.001648,337.145508 671.886169,275.361847 672.128845,213.579529 
	C672.149780,208.237579 668.266602,206.204697 666.001099,202.365570 
z"/>
<path fill="#E5B01B" opacity="1.000000" stroke="none" 
	d="
M621.415039,453.782745 
	C620.320374,458.786285 611.940552,466.502808 606.996094,466.933197 
	C601.066101,467.449402 595.111694,467.893127 589.163635,467.953186 
	C574.860474,468.097717 560.554260,468.070343 546.250549,467.954376 
	C542.298462,467.922302 538.354553,467.279938 534.400208,467.019226 
	C530.551392,466.765472 526.890076,470.725311 522.657166,467.305054 
	C522.036133,466.803314 518.867798,469.336456 516.952881,470.580597 
	C513.789307,472.635925 510.686768,474.785156 507.191650,476.882019 
	C513.562805,470.207306 520.087769,464.451630 531.041687,464.836731 
	C554.837830,465.673370 578.685181,464.953186 602.507751,465.216583 
	C607.598389,465.272858 611.465149,464.159637 614.651062,460.112793 
	C616.485168,457.783020 618.923950,455.929321 621.415039,453.782745 
z"/>
<path fill="#E5B01B" opacity="1.000000" stroke="none" 
	d="
M653.538208,421.903687 
	C651.269104,426.964081 648.164246,431.628021 642.104309,433.818115 
	C645.551941,429.845337 649.382812,425.917633 653.538208,421.903687 
z"/>
<path fill="#E5B01B" opacity="1.000000" stroke="none" 
	d="
M637.468994,437.825806 
	C634.007507,441.781860 630.221130,445.821777 626.065979,449.802063 
	C629.512817,445.798126 633.328491,441.853882 637.468994,437.825806 
z"/>
<path fill="#E5B01B" opacity="1.000000" stroke="none" 
	d="
M651.734375,187.458862 
	C656.462463,187.273544 658.009583,191.081360 659.796509,194.930298 
	C657.109131,192.798157 654.482300,190.291214 651.734375,187.458862 
z"/>
<path fill="#E5B01B" opacity="1.000000" stroke="none" 
	d="
M644.068054,179.330292 
	C646.309692,181.188187 648.609192,183.377258 650.899658,185.934723 
	C648.635681,184.089218 646.380798,181.875351 644.068054,179.330292 
z"/>
<path fill="#E5B01B" opacity="1.000000" stroke="none" 
	d="
M638.236328,173.232101 
	C641.873657,171.237427 641.447083,174.314972 642.004272,176.621918 
	C640.778992,175.830521 639.548279,174.685471 638.236328,173.232101 
z"/>
<path fill="#E5B01B" opacity="1.000000" stroke="none" 
	d="
M657.512878,417.860229 
	C656.734985,419.144775 655.641235,420.520050 654.181335,421.880127 
	C654.942444,420.560242 656.069763,419.255585 657.512878,417.860229 
z"/>
<path fill="#E5B01B" opacity="1.000000" stroke="none" 
	d="
M641.456909,433.809631 
	C640.676758,435.104767 639.582336,436.489410 638.115234,437.834930 
	C638.875854,436.496918 640.009216,435.198029 641.456909,433.809631 
z"/>
<path fill="#E5B01B" opacity="1.000000" stroke="none" 
	d="
M625.428955,449.785980 
	C624.647278,451.084106 623.551819,452.470917 622.081482,453.800110 
	C622.842834,452.453186 623.979004,451.163940 625.428955,449.785980 
z"/>
<path fill="#E5B01B" opacity="1.000000" stroke="none" 
	d="
M662.146545,198.259491 
	C662.690369,198.440430 663.306702,198.907104 663.958984,199.689819 
	C663.403015,199.518982 662.811096,199.032120 662.146545,198.259491 
z"/>
<path fill="#E5B01B" opacity="1.000000" stroke="none" 
	d="
M642.105774,177.276337 
	C642.657593,177.444809 643.288818,177.899521 643.960388,178.671814 
	C643.395569,178.513809 642.790344,178.038193 642.105774,177.276337 
z"/>
<path fill="#E5B01B" opacity="1.000000" stroke="none" 
	d="
M660.683228,196.498795 
	C661.088318,196.569534 661.517029,196.941254 661.986572,197.619843 
	C661.587219,197.551041 661.147034,197.175400 660.683228,196.498795 
z"/>
<path fill="#E5B01B" opacity="1.000000" stroke="none" 
	d="
M659.768677,195.467651 
	C660.044373,195.358475 660.371704,195.536667 660.747803,196.005356 
	C660.471130,196.115570 660.145752,195.935287 659.768677,195.467651 
z"/>
</svg>