<svg version="1.1" id="Layer_1" xmlns="http://www.w3.org/2000/svg" xmlns:xlink="http://www.w3.org/1999/xlink" x="0px" y="0px"
	 width="100%" viewBox="0 0 889 898" enable-background="new 0 0 889 898" xml:space="preserve">
<path fill="none" opacity="1.000000" stroke="#000000" stroke-linecap="round" stroke-linejoin="round" stroke-width="7.000000"
	d="
M547.000000,385.000000 
	C545.139282,386.168915 543.062012,386.005402 541.000000,386.004974 
	C507.500000,385.997955 474.000000,386.001404 440.500000,385.996826 
	C438.269531,385.996521 436.339203,385.945770 434.427460,387.930115 
	C422.571655,400.235718 410.490631,412.324127 398.503235,424.503204 
	C390.153198,432.986755 381.914948,441.582855 373.436218,449.935242 
	C371.575745,451.768005 370.949371,453.500336 370.953247,456.000061 
	C371.018616,498.166626 370.996826,540.333313 371.003937,582.500000 
	C371.004852,587.971130 371.029449,587.995483 376.500000,587.996216 
	C424.166656,588.002808 471.833344,588.002808 519.500000,587.996094 
	C524.970581,587.995361 524.994019,587.970581 524.995972,582.500000 
	C525.004944,556.833313 525.093567,531.165955 524.888550,505.500885 
	C524.861084,502.059265 526.125977,499.924103 528.506348,498.007904 
	C529.803833,496.963409 531.305908,496.140106 532.476379,494.976227 
	C538.197998,489.286957 544.887756,487.638184 553.004028,487.814117 
	C576.992737,488.334137 601.000610,487.913513 624.999329,488.090637 
	C628.720703,488.118073 631.480347,487.129456 634.027283,484.526672 
	C641.115295,477.283081 648.303894,470.136932 655.506775,463.006836 
	C666.981506,451.647980 678.418274,440.248138 690.068298,429.071198 
	C692.424805,426.810394 693.049744,424.546631 693.046692,421.499939 
	C692.984436,359.666687 692.998596,297.833344 693.004822,236.000000 
	C693.005066,233.355499 692.835449,231.177185 690.602356,228.899628 
	C679.048767,217.115646 667.852722,204.981552 656.493103,193.006516 
	C649.029602,185.138611 641.374451,177.447464 634.082153,169.425308 
	C632.087158,167.230637 630.046692,166.980179 627.500000,166.980637 
	C504.333344,167.002808 381.166656,167.002792 258.000000,166.980637 
	C255.453262,166.980179 253.478500,167.330856 251.418457,169.419586 
	C231.888687,189.221252 212.221237,208.888672 192.419571,228.418442 
	C190.330841,230.478485 189.978745,232.453217 189.980209,235.000015 
	C190.007233,282.000000 189.999146,329.000000 190.001083,376.000000 
	C190.001328,381.991913 190.008102,381.998688 196.000000,381.998932 
	C242.666672,382.000885 289.333344,382.000854 336.000000,381.998932 
	C341.991913,381.998688 341.998413,381.991913 341.998901,376.000000 
	C342.001312,346.166656 342.037781,316.333221 341.950653,286.500153 
	C341.940155,282.900360 342.268433,279.780304 345.465607,277.452759 
	C347.159729,276.219421 348.708862,274.655212 349.960663,272.970764 
	C353.645905,268.011688 358.456970,266.856598 364.500458,266.879303 
	C419.333038,267.085205 474.166718,267.029694 528.999878,266.925629 
	C532.260132,266.919434 534.772095,267.746063 537.016174,269.983795 
	C538.768738,271.731415 540.472656,273.643341 542.539551,274.936768 
	C547.137512,277.814117 548.166199,281.735291 548.122986,287.001007 
	C547.871765,317.665619 548.008057,348.333344 547.980286,378.999969 
	C547.978638,380.866119 548.547852,382.887482 547.000000,384.500000 
"/>
<path fill="none" opacity="1.000000" stroke="#000000" stroke-linecap="round" stroke-linejoin="round" stroke-width="6.000000"
	d="
M115.500000,76.500000 
	C108.102097,76.814049 100.834038,77.989204 94.535927,82.055649 
	C83.810928,88.980362 76.592018,98.333664 74.963058,111.495430 
	C72.205460,133.776291 84.910057,152.758789 107.026726,157.371872 
	C129.084137,161.972580 149.848236,149.112930 154.995255,126.498924 
	C160.257889,103.376953 146.604263,83.513428 124.982689,77.562897 
	C122.108643,76.771919 119.000000,76.833336 116.000000,76.500000 
"/>
<path fill="none" opacity="1.000000" stroke="#000000" stroke-linecap="round" stroke-linejoin="round" stroke-width="7.000000"
	d="
M71.000000,42.000000 
	C64.801064,43.866905 58.599525,45.375744 53.421986,49.910934 
	C45.413334,56.925999 41.033623,65.450752 41.031868,76.000008 
	C40.990719,323.333344 40.994797,570.666687 41.011772,818.000000 
	C41.012897,834.403748 53.982887,848.532532 68.985390,851.085876 
	C73.172546,851.798462 77.305244,852.002197 81.500000,852.002136 
	C325.666656,851.999695 569.833313,851.999207 814.000000,852.001770 
	C831.236816,852.001953 845.685913,841.382385 849.076721,826.517517 
	C849.911560,822.857605 851.005920,819.296448 851.005859,815.500000 
	C850.999329,569.833313 851.033386,324.166656 850.944092,78.500023 
	C850.935852,55.923588 834.727661,41.957027 814.500000,41.961819 
	C566.833313,42.020500 319.166656,42.000000 71.500000,42.000000 
"/>
<path fill="none" opacity="1.000000" stroke="#000000" stroke-linecap="round" stroke-linejoin="round" stroke-width="6.000000"
	d="
M776.000000,76.500000 
	C768.596375,77.087303 761.371643,78.191284 754.987732,82.481773 
	C744.388306,89.605484 737.733887,98.922005 735.822693,111.974037 
	C734.259338,122.650879 737.002197,131.837219 742.551514,140.466858 
	C748.309204,149.420486 756.761108,155.418152 767.035645,157.306015 
	C781.820435,160.022568 797.307007,157.263824 809.116333,141.587616 
	C826.104553,119.036789 815.283203,85.023010 785.984802,77.559731 
	C782.931335,76.781906 779.666687,76.833328 776.500000,76.500000 
"/>
<path fill="none" opacity="1.000000" stroke="#000000" stroke-linecap="round" stroke-linejoin="round" stroke-width="7.000000"
	d="
M373.500000,664.000000 
	C371.021515,664.305115 370.984833,666.077454 370.985962,668.000000 
	C371.005524,700.666687 371.058197,733.333557 370.926788,765.999695 
	C370.910248,770.108826 373.123291,770.027405 376.000031,770.023438 
	C404.499969,769.984680 433.000000,770.000000 461.500000,770.000000 
	C480.500000,770.000000 499.500000,770.007019 518.500000,769.995789 
	C524.298889,769.992371 524.994263,769.298889 524.995850,763.500000 
	C525.004578,732.166687 525.004150,700.833313 524.996094,669.500000 
	C524.994690,664.029419 524.971130,664.004639 519.500000,664.003845 
	C471.000000,663.997192 422.500000,664.000000 374.000000,664.000000 
"/>
<path fill="none" opacity="1.000000" stroke="#000000" stroke-linecap="round" stroke-linejoin="round" stroke-width="6.000000"
	d="
M113.000000,735.000000 
	C109.333336,735.833374 105.489685,736.216797 102.030525,737.577576 
	C86.774231,743.579224 77.100410,754.057739 74.908180,770.988098 
	C72.833725,787.009094 78.632607,799.393860 91.025185,808.967407 
	C112.351128,825.442261 144.932327,816.998169 154.234238,788.911987 
	C161.195511,767.893066 151.512115,745.031921 126.976700,737.071838 
	C122.674065,735.675964 118.113632,734.899658 113.500000,735.000000 
"/>
<path fill="none" opacity="1.000000" stroke="#000000" stroke-linecap="round" stroke-linejoin="round" stroke-width="6.000000"
	d="
M774.000000,735.000000 
	C772.092651,735.889282 769.982117,735.672668 768.015747,736.076538 
	C750.862244,739.599426 738.198242,754.275879 735.824097,769.973389 
	C734.262695,780.297180 736.536194,789.420166 741.591064,797.945984 
	C747.520081,807.946228 756.636292,814.170959 768.014221,816.428284 
	C783.979614,819.595825 801.656067,813.003967 811.095154,797.558167 
	C824.990112,774.821411 814.631409,744.163086 785.476074,736.086304 
	C781.984985,735.119080 778.166687,735.333313 774.500000,735.000000 
"/>
</svg>